<svg width="20" height="20" viewBox="0 0 20 20" fill="none" xmlns="http://www.w3.org/2000/svg">
<path d="M14.7917 8.75H10.8333V5.1875C10.8333 5.08437 10.7396 5 10.625 5H9.375C9.26042 5 9.16667 5.08437 9.16667 5.1875V8.75H5.20833C5.09375 8.75 5 8.83437 5 8.9375V10.0625C5 10.1656 5.09375 10.25 5.20833 10.25H9.16667V13.8125C9.16667 13.9156 9.26042 14 9.375 14H10.625C10.7396 14 10.8333 13.9156 10.8333 13.8125V10.25H14.7917C14.9062 10.25 15 10.1656 15 10.0625V8.9375C15 8.83437 14.9062 8.75 14.7917 8.75Z" fill="#0157FD"/>
<path d="M10 0C4.47768 0 0 4.47768 0 10C0 15.5223 4.47768 20 10 20C15.5223 20 20 15.5223 20 10C20 4.47768 15.5223 0 10 0ZM10 18.3036C5.41518 18.3036 1.69643 14.5848 1.69643 10C1.69643 5.41518 5.41518 1.69643 10 1.69643C14.5848 1.69643 18.3036 5.41518 18.3036 10C18.3036 14.5848 14.5848 18.3036 10 18.3036Z" fill="#0157FD"/>
</svg>
