<svg width="27" height="27" viewBox="0 0 27 27" fill="none" xmlns="http://www.w3.org/2000/svg">
<path d="M13.5 0C9.91958 0 6.4858 1.42232 3.95406 3.95406C1.42232 6.4858 0 9.91958 0 13.5C0 17.0804 1.42232 20.5142 3.95406 23.0459C6.4858 25.5777 9.91958 27 13.5 27C17.0804 27 20.5142 25.5777 23.0459 23.0459C25.5777 20.5142 27 17.0804 27 13.5C27 9.91958 25.5777 6.4858 23.0459 3.95406C20.5142 1.42232 17.0804 0 13.5 0V0ZM19.4062 12.6562C19.63 12.6562 19.8446 12.7451 20.0029 12.9034C20.1611 13.0616 20.25 13.2762 20.25 13.5C20.25 13.7238 20.1611 13.9384 20.0029 14.0966C19.8446 14.2549 19.63 14.3438 19.4062 14.3438H9.63056L13.2536 17.9651C13.3321 18.0436 13.3943 18.1367 13.4368 18.2392C13.4792 18.3417 13.5011 18.4516 13.5011 18.5625C13.5011 18.6734 13.4792 18.7833 13.4368 18.8858C13.3943 18.9883 13.3321 19.0814 13.2536 19.1599C13.1752 19.2383 13.082 19.3006 12.9795 19.343C12.877 19.3855 12.7672 19.4073 12.6562 19.4073C12.5453 19.4073 12.4355 19.3855 12.333 19.343C12.2305 19.3006 12.1373 19.2383 12.0589 19.1599L6.99638 14.0974C6.9178 14.019 6.85546 13.9259 6.81292 13.8234C6.77039 13.7209 6.74849 13.611 6.74849 13.5C6.74849 13.389 6.77039 13.2791 6.81292 13.1766C6.85546 13.0741 6.9178 12.981 6.99638 12.9026L12.0589 7.84013C12.2173 7.68169 12.4322 7.59268 12.6562 7.59268C12.8803 7.59268 13.0952 7.68169 13.2536 7.84013C13.4121 7.99856 13.5011 8.21344 13.5011 8.4375C13.5011 8.66156 13.4121 8.87644 13.2536 9.03487L9.63056 12.6562H19.4062Z" fill="black"/>
</svg>
