<svg width="21" height="15" viewBox="0 0 21 15" fill="none" xmlns="http://www.w3.org/2000/svg">
<path d="M16.625 4L13.125 7.5H15.75C15.75 10.3962 13.3962 12.75 10.5 12.75C9.625 12.75 8.77625 12.5312 8.05 12.1375L6.7725 13.415C7.88645 14.124 9.17957 14.5004 10.5 14.5C14.3675 14.5 17.5 11.3675 17.5 7.5H20.125M5.25 7.5C5.25 4.60375 7.60375 2.25 10.5 2.25C11.375 2.25 12.2238 2.46875 12.95 2.8625L14.2275 1.585C13.1135 0.876034 11.8204 0.499633 10.5 0.5C6.6325 0.5 3.5 3.6325 3.5 7.5H0.875L4.375 11L7.875 7.5M12.25 7.5C12.25 8.47125 11.4712 9.25 10.5 9.25C9.52875 9.25 8.75 8.47125 8.75 7.5C8.75 6.52875 9.5375 5.75 10.5 5.75C11.4625 5.75 12.25 6.5375 12.25 7.5Z" fill="#0157FD"/>
</svg>
