<svg width="21" height="19" viewBox="0 0 21 19" fill="none" xmlns="http://www.w3.org/2000/svg">
            <path d="M1.8027 0.486389L19.9778 0.486389C20.2456 0.486389 20.5024 0.592771 20.6918 0.782131C20.8811 0.971491 20.9875 1.22832 20.9875 1.49612V17.6517C20.9875 17.9195 20.8811 18.1764 20.6918 18.3657C20.5024 18.5551 20.2456 18.6615 19.9778 18.6615H1.8027C1.5349 18.6615 1.27807 18.5551 1.08871 18.3657C0.89935 18.1764 0.792969 17.9195 0.792969 17.6517L0.792969 1.49612C0.792969 1.22832 0.89935 0.971491 1.08871 0.782131C1.27807 0.592771 1.5349 0.486389 1.8027 0.486389ZM18.968 4.76561L10.9629 11.9347L2.81242 4.7434L2.81242 16.642H18.968V4.76561ZM3.32839 2.50584L10.9518 9.23264L18.4652 2.50584L3.32839 2.50584Z" fill="white" />
          </svg>
