<svg width="36" height="37" viewBox="0 0 36 37" fill="none" xmlns="http://www.w3.org/2000/svg">
<path d="M32.168 29.2696L25.6641 22.7263C26.5312 21.2879 26.9648 19.7435 26.9648 18.0929C26.9648 15.9943 26.3262 14.1315 25.0488 12.5045C23.7715 10.8775 22.1484 9.80468 20.1797 9.28593V0.0545349C23.1328 0.431808 25.8105 1.45752 28.2129 3.13167C30.6152 4.80581 32.5137 6.95745 33.9082 9.58657C35.3027 12.2157 36 15.0511 36 18.0929C36 22.2429 34.7227 25.9685 32.168 29.2696ZM9.21094 15.7939H0C0.515625 11.691 2.23242 8.17179 5.15039 5.23614C8.06836 2.30049 11.5664 0.573285 15.6445 0.0545349V9.28593C14.0742 9.71036 12.709 10.5062 11.5488 11.6734C10.3887 12.8405 9.60938 14.2141 9.21094 15.7939ZM9.17578 20.3565C9.69141 22.3372 10.7578 23.9701 12.375 25.2552C13.9922 26.5403 15.8438 27.1828 17.9297 27.1828C19.5703 27.1828 21.1055 26.7466 22.5352 25.8741L29.0391 32.4175C25.7578 34.9876 22.0547 36.2727 17.9297 36.2727C14.9062 36.2727 12.0879 35.5712 9.47461 34.1682C6.86133 32.7653 4.72266 30.8553 3.05859 28.4384C1.39453 26.0215 0.375 23.3275 0 20.3565H9.17578Z" fill="black"/>
</svg>
