<svg width="21" height="21" viewBox="0 0 21 21" fill="none" xmlns="http://www.w3.org/2000/svg">
<path d="M12.355 9.16125L10.5 11.0163L8.63625 9.16125L7.4025 10.395L9.26625 12.25L7.41125 14.105L8.645 15.3388L10.5 13.4837L12.355 15.3388L13.5887 14.105L11.7337 12.25L13.5887 10.395L12.355 9.16125ZM13.5625 3.5L12.6875 2.625H8.3125L7.4375 3.5H4.375V5.25H16.625V3.5H13.5625ZM5.25 16.625C5.25 17.0891 5.43437 17.5342 5.76256 17.8624C6.09075 18.1906 6.53587 18.375 7 18.375H14C14.4641 18.375 14.9092 18.1906 15.2374 17.8624C15.5656 17.5342 15.75 17.0891 15.75 16.625V6.125H5.25V16.625ZM7 7.875H14V16.625H7V7.875Z" fill="#0157FD"/>
</svg>
