<svg width="25" height="25" viewBox="0 0 25 25" fill="none" xmlns="http://www.w3.org/2000/svg">
<path d="M20.9375 17.5625C20.3416 17.5654 19.7579 17.7318 19.25 18.0434L16.6428 15.4278C17.2495 14.5721 17.5753 13.549 17.5753 12.5C17.5753 11.451 17.2495 10.4279 16.6428 9.57219L19.25 6.95656C19.7579 7.26824 20.3416 7.43459 20.9375 7.4375C21.605 7.4375 22.2575 7.23956 22.8126 6.86871C23.3676 6.49786 23.8001 5.97076 24.0556 5.35406C24.311 4.73736 24.3779 4.05876 24.2477 3.40407C24.1174 2.74939 23.796 2.14802 23.324 1.67602C22.852 1.20401 22.2506 0.882576 21.5959 0.752351C20.9412 0.622126 20.2626 0.688962 19.6459 0.944408C19.0292 1.19985 18.5021 1.63244 18.1313 2.18745C17.7604 2.74247 17.5625 3.39499 17.5625 4.0625C17.5654 4.65841 17.7318 5.24209 18.0434 5.75L15.4278 8.35719C14.5721 7.75053 13.549 7.42468 12.5 7.42468C11.451 7.42468 10.4279 7.75053 9.57219 8.35719L6.95656 5.75C7.26824 5.24209 7.43459 4.65841 7.4375 4.0625C7.4375 3.39499 7.23956 2.74247 6.86871 2.18745C6.49786 1.63244 5.97076 1.19985 5.35406 0.944408C4.73736 0.688962 4.05876 0.622126 3.40407 0.752351C2.74939 0.882576 2.14802 1.20401 1.67602 1.67602C1.20401 2.14802 0.882576 2.74939 0.752351 3.40407C0.622126 4.05876 0.688962 4.73736 0.944408 5.35406C1.19985 5.97076 1.63244 6.49786 2.18745 6.86871C2.74247 7.23956 3.39499 7.4375 4.0625 7.4375C4.65841 7.43459 5.24209 7.26824 5.75 6.95656L8.35719 9.57219C7.75053 10.4279 7.42468 11.451 7.42468 12.5C7.42468 13.549 7.75053 14.5721 8.35719 15.4278L5.75 18.0434C5.24209 17.7318 4.65841 17.5654 4.0625 17.5625C3.39499 17.5625 2.74247 17.7604 2.18745 18.1313C1.63244 18.5021 1.19985 19.0292 0.944408 19.6459C0.688962 20.2626 0.622126 20.9412 0.752351 21.5959C0.882576 22.2506 1.20401 22.852 1.67602 23.324C2.14802 23.796 2.74939 24.1174 3.40407 24.2477C4.05876 24.3779 4.73736 24.311 5.35406 24.0556C5.97076 23.8001 6.49786 23.3676 6.86871 22.8126C7.23956 22.2575 7.4375 21.605 7.4375 20.9375C7.43459 20.3416 7.26824 19.7579 6.95656 19.25L9.57219 16.6428C10.4279 17.2495 11.451 17.5753 12.5 17.5753C13.549 17.5753 14.5721 17.2495 15.4278 16.6428L18.0434 19.25C17.7318 19.7579 17.5654 20.3416 17.5625 20.9375C17.5625 21.605 17.7604 22.2575 18.1313 22.8126C18.5021 23.3676 19.0292 23.8001 19.6459 24.0556C20.2626 24.311 20.9412 24.3779 21.5959 24.2477C22.2506 24.1174 22.852 23.796 23.324 23.324C23.796 22.852 24.1174 22.2506 24.2477 21.5959C24.3779 20.9412 24.311 20.2626 24.0556 19.6459C23.8001 19.0292 23.3676 18.5021 22.8126 18.1313C22.2575 17.7604 21.605 17.5625 20.9375 17.5625ZM20.9375 2.375C21.2713 2.375 21.5975 2.47397 21.875 2.6594C22.1525 2.84482 22.3688 3.10837 22.4965 3.41672C22.6243 3.72507 22.6577 4.06437 22.5926 4.39172C22.5275 4.71906 22.3667 5.01974 22.1307 5.25574C21.8947 5.49175 21.5941 5.65246 21.2667 5.71758C20.9394 5.78269 20.6001 5.74927 20.2917 5.62155C19.9834 5.49383 19.7198 5.27753 19.5344 5.00003C19.349 4.72252 19.25 4.39626 19.25 4.0625C19.25 3.61495 19.4278 3.18573 19.7443 2.86926C20.0607 2.55279 20.4899 2.375 20.9375 2.375ZM2.375 4.0625C2.375 3.72875 2.47397 3.40248 2.6594 3.12498C2.84482 2.84747 3.10837 2.63118 3.41672 2.50345C3.72507 2.37573 4.06437 2.34231 4.39172 2.40743C4.71906 2.47254 5.01974 2.63326 5.25574 2.86926C5.49175 3.10526 5.65246 3.40594 5.71758 3.73329C5.78269 4.06063 5.74927 4.39993 5.62155 4.70828C5.49383 5.01663 5.27753 5.28018 5.00003 5.46561C4.72252 5.65103 4.39626 5.75 4.0625 5.75C3.61495 5.75 3.18573 5.57221 2.86926 5.25574C2.55279 4.93928 2.375 4.51005 2.375 4.0625ZM4.0625 22.625C3.72875 22.625 3.40248 22.526 3.12498 22.3406C2.84747 22.1552 2.63118 21.8916 2.50345 21.5833C2.37573 21.2749 2.34231 20.9356 2.40743 20.6083C2.47254 20.2809 2.63326 19.9803 2.86926 19.7443C3.10526 19.5083 3.40594 19.3475 3.73329 19.2824C4.06063 19.2173 4.39993 19.2507 4.70828 19.3785C5.01663 19.5062 5.28018 19.7225 5.46561 20C5.65103 20.2775 5.75 20.6037 5.75 20.9375C5.75 21.3851 5.57221 21.8143 5.25574 22.1307C4.93928 22.4472 4.51005 22.625 4.0625 22.625ZM12.5 15.875C11.8325 15.875 11.18 15.6771 10.625 15.3062C10.0699 14.9354 9.63735 14.4083 9.38191 13.7916C9.12646 13.1749 9.05963 12.4963 9.18985 11.8416C9.32008 11.1869 9.64151 10.5855 10.1135 10.1135C10.5855 9.64151 11.1869 9.32008 11.8416 9.18985C12.4963 9.05963 13.1749 9.12646 13.7916 9.38191C14.4083 9.63735 14.9354 10.0699 15.3062 10.625C15.6771 11.18 15.875 11.8325 15.875 12.5C15.875 13.3951 15.5194 14.2536 14.8865 14.8865C14.2536 15.5194 13.3951 15.875 12.5 15.875ZM20.9375 22.625C20.6037 22.625 20.2775 22.526 20 22.3406C19.7225 22.1552 19.5062 21.8916 19.3785 21.5833C19.2507 21.2749 19.2173 20.9356 19.2824 20.6083C19.3475 20.2809 19.5083 19.9803 19.7443 19.7443C19.9803 19.5083 20.2809 19.3475 20.6083 19.2824C20.9356 19.2173 21.2749 19.2507 21.5833 19.3785C21.8916 19.5062 22.1552 19.7225 22.3406 20C22.526 20.2775 22.625 20.6037 22.625 20.9375C22.625 21.3851 22.4472 21.8143 22.1307 22.1307C21.8143 22.4472 21.3851 22.625 20.9375 22.625Z" fill="black"/>
</svg>
