<svg width="24" height="24" viewBox="0 0 24 24" fill="none" xmlns="http://www.w3.org/2000/svg">
<path d="M16.65 20.2C16.65 17.87 14.33 15.97 11.46 15.97C8.59002 15.97 6.27002 17.86 6.27002 20.2M11.46 13.73C12.2053 13.73 12.92 13.4339 13.447 12.907C13.974 12.38 14.27 11.6652 14.27 10.92C14.27 10.1747 13.974 9.45999 13.447 8.93302C12.92 8.40604 12.2053 8.10999 11.46 8.10999C10.7148 8.10999 10 8.40604 9.47305 8.93302C8.94607 9.45999 8.65002 10.1747 8.65002 10.92C8.65002 11.6652 8.94607 12.38 9.47305 12.907C10 13.4339 10.7148 13.73 11.46 13.73V13.73Z" stroke="black" stroke-width="1.5" stroke-linecap="round" stroke-linejoin="round"/>
<path d="M21 12.5C21 17.75 16.75 22 11.5 22C6.25 22 2 17.75 2 12.5C2 7.25 6.25 3 11.5 3C12.81 3 14.06 3.26 15.2 3.74C15.07 4.14 15 4.56 15 5C15 5.75 15.21 6.46 15.58 7.06C15.78 7.4 16.04 7.71 16.34 7.97C17.04 8.61 17.97 9 19 9C19.44 9 19.86 8.93 20.25 8.79C20.73 9.93 21 11.19 21 12.5Z" stroke="black" stroke-width="1.5" stroke-linecap="round" stroke-linejoin="round"/>
<path d="M20.49 4.98001H17.51M19 3.52001V6.51001M23 5.00001C23 5.32001 22.96 5.63001 22.88 5.93001C22.79 6.33001 22.63 6.72001 22.42 7.06001C21.94 7.87001 21.17 8.50001 20.25 8.79001C19.86 8.93001 19.44 9.00001 19 9.00001C18.0155 9.0029 17.0659 8.6352 16.34 7.97001C16.04 7.71001 15.78 7.40001 15.58 7.06001C15.1993 6.44043 14.9985 5.72718 15 5.00001C15 4.56001 15.07 4.14001 15.2 3.74001C15.4643 2.94137 15.9739 2.24654 16.6562 1.75454C17.3386 1.26254 18.1588 0.998482 19 1.00001C20.18 1.00001 21.25 1.51001 21.97 2.33001C22.61 3.04001 23 3.98001 23 5.00001Z" stroke="black" stroke-width="1.5" stroke-miterlimit="10" stroke-linecap="round" stroke-linejoin="round"/>
</svg>
