<svg width="31" height="24" viewBox="0 0 31 24" fill="none" xmlns="http://www.w3.org/2000/svg">
<path d="M23.8 3.24646H3.19995C1.43995 3.24646 0 4.62706 0 6.32396V20.6761C0 22.373 1.43995 23.7536 3.19995 23.7536H23.8C25.56 23.7536 27 22.373 27 20.6761V6.32396C27 4.62706 25.56 3.24646 23.8 3.24646ZM23.8 21.0366H3.19995C2.93995 21.0366 2.71997 20.8682 2.71997 20.6761V8.22176L12.03 16.0841C12.22 16.2453 12.46 16.3341 12.71 16.3341H14.29C14.54 16.3341 14.78 16.2453 14.97 16.0841L24.28 8.22156V20.6762C24.28 20.8682 24.06 21.0366 23.8 21.0366ZM13.5 13.6363L4.43994 5.96336H22.5601L13.5 13.6363Z" fill="#353535"/>
<path d="M25 12C28.3137 12 31 9.31371 31 6C31 2.68629 28.3137 0 25 0C21.6863 0 19 2.68629 19 6C19 9.31371 21.6863 12 25 12Z" fill="#0157FD"/>
</svg>
