<svg width="19" height="21" viewBox="0 0 19 21" fill="none" xmlns="http://www.w3.org/2000/svg">
<path d="M16.9586 8.5544H17.9683C18.2361 8.5544 18.493 8.66078 18.6823 8.85015C18.8717 9.03951 18.9781 9.29633 18.9781 9.56413V19.6614C18.9781 19.9292 18.8717 20.186 18.6823 20.3754C18.493 20.5647 18.2361 20.6711 17.9683 20.6711H1.8127C1.54491 20.6711 1.28808 20.5647 1.09872 20.3754C0.90936 20.186 0.802979 19.9292 0.802979 19.6614L0.802979 9.56413C0.802979 9.29633 0.90936 9.03951 1.09872 8.85015C1.28808 8.66078 1.54491 8.5544 1.8127 8.5544H2.82243V7.54468C2.82243 6.61648 3.00525 5.69738 3.36046 4.83984C3.71566 3.9823 4.23629 3.20312 4.89262 2.54679C5.54896 1.89045 6.32814 1.36982 7.18568 1.01462C8.04322 0.659414 8.96232 0.476593 9.89052 0.476593C10.8187 0.476593 11.7378 0.659414 12.5954 1.01462C13.4529 1.36982 14.2321 1.89045 14.8884 2.54679C15.5447 3.20312 16.0654 3.9823 16.4206 4.83984C16.7758 5.69738 16.9586 6.61648 16.9586 7.54468V8.5544ZM2.82243 10.5739L2.82243 18.6517H16.9586V10.5739L2.82243 10.5739ZM8.88079 12.5933H10.9002L10.9002 16.6322H8.88079L8.88079 12.5933ZM14.9391 8.5544V7.54468C14.9391 6.2057 14.4072 4.92156 13.4604 3.97476C12.5136 3.02795 11.2295 2.49605 9.89052 2.49605C8.55153 2.49605 7.2674 3.02795 6.32059 3.97476C5.37379 4.92156 4.84188 6.2057 4.84188 7.54468L4.84188 8.5544H14.9391Z" fill="white"/>
</svg>
