<svg width="19" height="19" viewBox="0 0 19 19" fill="none" xmlns="http://www.w3.org/2000/svg">
<path fill-rule="evenodd" clip-rule="evenodd" d="M13.242 1.51501C13.7925 0.964628 14.5354 0.649781 15.3137 0.636973C16.092 0.624164 16.8449 0.914398 17.4132 1.44636C17.9815 1.97833 18.3208 2.71037 18.3594 3.48786C18.398 4.26534 18.1328 5.02738 17.62 5.61301L17.485 5.75701L16.778 6.46401L17.485 7.17201C17.8387 7.52587 18.0469 7.99943 18.0685 8.49926C18.0902 8.99908 17.9237 9.48888 17.602 9.87201L17.485 10L13.243 14.243C13.0634 14.4243 12.8214 14.53 12.5664 14.5387C12.3115 14.5473 12.0628 14.4582 11.8714 14.2895C11.68 14.1209 11.5603 13.8854 11.5368 13.6314C11.5133 13.3773 11.5878 13.1239 11.745 12.923L11.828 12.828L16.071 8.58601L15.364 7.87901L5.48599 17.757C5.36346 17.8795 5.21373 17.9713 5.04899 18.025L4.92399 18.058L1.43299 18.756C1.27961 18.7869 1.12115 18.7817 0.970116 18.7409C0.81908 18.7001 0.679593 18.6247 0.562656 18.5208C0.445719 18.4168 0.354529 18.2871 0.296277 18.1419C0.238026 17.9967 0.214305 17.8399 0.226987 17.684L0.243987 17.567L0.941987 14.077C0.975908 13.9069 1.04958 13.7472 1.15699 13.611L1.24299 13.514L13.243 1.51401L13.242 1.51501ZM3.34399 14.242L2.85099 14.736L2.49699 16.503L4.26499 16.15L4.75799 15.657L3.34399 14.242ZM12.537 5.05001L4.75799 12.828L6.17299 14.243L13.951 6.46401L12.537 5.05001V5.05001ZM16.07 2.93001C15.8978 2.75783 15.6687 2.6544 15.4257 2.63912C15.1826 2.62384 14.9424 2.69776 14.75 2.84701L14.656 2.93001L13.949 3.63701L15.363 5.05101L16.07 4.34401L16.153 4.25001C16.3022 4.0576 16.3762 3.81735 16.3609 3.57433C16.3456 3.3313 16.2422 3.1022 16.07 2.93001Z" fill="black"/>
</svg>
