<svg width="21" height="22" viewBox="0 0 21 22" fill="none" xmlns="http://www.w3.org/2000/svg">
<path d="M14.8125 9.75H11.25V6.1875C11.25 6.08437 11.1656 6 11.0625 6H9.9375C9.83437 6 9.75 6.08437 9.75 6.1875V9.75H6.1875C6.08437 9.75 6 9.83437 6 9.9375V11.0625C6 11.1656 6.08437 11.25 6.1875 11.25H9.75V14.8125C9.75 14.9156 9.83437 15 9.9375 15H11.0625C11.1656 15 11.25 14.9156 11.25 14.8125V11.25H14.8125C14.9156 11.25 15 11.1656 15 11.0625V9.9375C15 9.83437 14.9156 9.75 14.8125 9.75Z" fill="black"/>
<path d="M10.5 0C4.70156 0 0 4.92545 0 11C0 17.0746 4.70156 22 10.5 22C16.2984 22 21 17.0746 21 11C21 4.92545 16.2984 0 10.5 0ZM10.5 20.1339C5.68594 20.1339 1.78125 16.0433 1.78125 11C1.78125 5.9567 5.68594 1.86607 10.5 1.86607C15.3141 1.86607 19.2188 5.9567 19.2188 11C19.2188 16.0433 15.3141 20.1339 10.5 20.1339Z" fill="black"/>
</svg>
