<svg width="429" height="11" viewBox="0 0 429 11" fill="none" xmlns="http://www.w3.org/2000/svg">
<line x1="0.00012207" y1="5.60219" x2="184.275" y2="5.60219" stroke="#C2C2C2" stroke-width="1.00973"/>
<line x1="244.354" y1="5.60219" x2="428.629" y2="5.60219" stroke="#C2C2C2" stroke-width="1.00973"/>
<path d="M209.52 10.099C208.606 10.099 207.772 9.88696 207.018 9.46287C206.264 9.02936 205.666 8.43093 205.223 7.66758C204.789 6.8948 204.573 6.02778 204.573 5.06652C204.573 4.10526 204.789 3.24296 205.223 2.4796C205.666 1.70683 206.264 1.10839 207.018 0.68431C207.772 0.2508 208.606 0.0340457 209.52 0.0340457C210.444 0.0340457 211.283 0.2508 212.037 0.68431C212.791 1.10839 213.384 1.70211 213.818 2.46547C214.251 3.22882 214.468 4.09584 214.468 5.06652C214.468 6.03721 214.251 6.90422 213.818 7.66758C213.384 8.43093 212.791 9.02936 212.037 9.46287C211.283 9.88696 210.444 10.099 209.52 10.099ZM209.52 8.98224C210.208 8.98224 210.826 8.82203 211.372 8.50161C211.928 8.18119 212.362 7.72412 212.673 7.1304C212.993 6.53668 213.153 5.84872 213.153 5.06652C213.153 4.2749 212.993 3.58694 212.673 3.00264C212.362 2.40892 211.933 1.95185 211.386 1.63143C210.84 1.31101 210.218 1.1508 209.52 1.1508C208.823 1.1508 208.201 1.31101 207.654 1.63143C207.108 1.95185 206.674 2.40892 206.354 3.00264C206.043 3.58694 205.887 4.2749 205.887 5.06652C205.887 5.84872 206.043 6.53668 206.354 7.1304C206.674 7.72412 207.108 8.18119 207.654 8.50161C208.21 8.82203 208.832 8.98224 209.52 8.98224ZM221.354 10L219.008 5.97124H217.453V10H216.166V0.147135H219.347C220.091 0.147135 220.718 0.274361 221.227 0.528812C221.745 0.783263 222.132 1.12724 222.386 1.56075C222.641 1.99426 222.768 2.48903 222.768 3.04505C222.768 3.72359 222.57 4.32202 222.174 4.84034C221.788 5.35867 221.203 5.70265 220.421 5.87228L222.895 10H221.354ZM217.453 4.9393H219.347C220.044 4.9393 220.567 4.76966 220.916 4.43039C221.265 4.0817 221.439 3.61992 221.439 3.04505C221.439 2.46076 221.265 2.0084 220.916 1.68798C220.577 1.36756 220.054 1.20735 219.347 1.20735H217.453V4.9393Z" fill="#C2C2C2"/>
</svg>
