<svg width="93" height="30" viewBox="0 0 93 30" fill="none" xmlns="http://www.w3.org/2000/svg">
<path d="M5 30C5.63229 28.9595 6.86524 27.1561 8.63565 27.5723C10.8486 28.0925 12.1132 30 13.3778 27.5723C17.1085 20.41 18.5758 27.9047 23.8105 23.4104C30.1453 17.9716 29.4556 18.8006 29.8172 20.6358C31.8342 30.8723 38.5102 16.1209 40.2499 19.7688C41.389 22.1572 43.5983 14.6271 44.861 16.474C45.8094 17.8613 46.5728 20.6358 48.4697 20.6358C50.3665 20.6358 53.4269 17.8613 55.4818 15.7803C57.5368 13.6994 58.7443 17.6879 59.2185 18.7283C59.6928 19.7688 63.1703 17.6879 65.0672 15.0867C66.5847 13.0058 68.1232 16.0694 68.7028 17.8613C71.1296 16.9739 78.8099 10.4363 79.7678 14.2197C81.2432 13.0058 87.2096 4.50867 88 0" stroke="#E2F5FF" stroke-width="9" stroke-linecap="round" stroke-linejoin="round"/>
<path d="M5 30C5.63229 28.9595 6.86524 27.1561 8.63565 27.5723C10.8486 28.0925 12.1132 30 13.3778 27.5723C17.1085 20.41 18.5758 27.9047 23.8105 23.4104C30.1453 17.9716 29.4556 18.8006 29.8172 20.6358C31.8342 30.8723 38.5102 16.1209 40.25 19.7688C41.389 22.1572 43.5983 14.6271 44.861 16.474C45.8094 17.8613 46.5728 20.6358 48.4697 20.6358C50.3665 20.6358 53.4269 17.8613 55.4818 15.7803C57.5368 13.6994 58.7443 17.6879 59.2185 18.7283C59.6928 19.7688 63.1703 17.6879 65.0672 15.0867C66.5847 13.0058 68.1232 16.0694 68.7028 17.8613C71.1296 16.9739 78.8099 10.4363 79.7678 14.2197C81.2432 13.0058 87.2096 4.50867 88 0" stroke="#0077B6" stroke-width="2" stroke-linecap="round" stroke-linejoin="round"/>
<path d="M5.94871 8.23345L8.82906 5.46689V11H10.1709V5.46689L13.0513 8.23345L14 7.32222L9.5 3L5 7.32222L5.94871 8.23345Z" fill="#03045E"/>
<path d="M21.458 7.0625C21.2503 7.30957 21.0015 7.5083 20.7114 7.65869C20.425 7.80908 20.1099 7.88428 19.7661 7.88428C19.3149 7.88428 18.9211 7.77327 18.5845 7.55127C18.2515 7.32926 17.9937 7.01774 17.811 6.6167C17.6284 6.21208 17.5371 5.76628 17.5371 5.2793C17.5371 4.75651 17.6356 4.28564 17.8325 3.8667C18.033 3.44775 18.3159 3.12728 18.6812 2.90527C19.0464 2.68327 19.4725 2.57227 19.9595 2.57227C20.7329 2.57227 21.3416 2.8623 21.7856 3.44238C22.2332 4.01888 22.457 4.80664 22.457 5.80566V6.0957C22.457 7.61751 22.1562 8.72933 21.5547 9.43115C20.9531 10.1294 20.0454 10.4875 18.8315 10.5054H18.6382V9.66748H18.8477C19.6676 9.65316 20.2979 9.4401 20.7383 9.02832C21.1787 8.61296 21.4186 7.95768 21.458 7.0625ZM19.9272 7.0625C20.2603 7.0625 20.5664 6.96045 20.8457 6.75635C21.1286 6.55225 21.3345 6.2998 21.4634 5.99902V5.60156C21.4634 4.94987 21.3219 4.41992 21.0391 4.01172C20.7562 3.60352 20.3981 3.39941 19.9648 3.39941C19.528 3.39941 19.1771 3.56771 18.9121 3.9043C18.6471 4.2373 18.5146 4.67773 18.5146 5.22559C18.5146 5.75911 18.6418 6.19954 18.896 6.54688C19.1538 6.89062 19.4976 7.0625 19.9272 7.0625ZM28.3493 4.7207C28.3493 5.111 28.2455 5.45833 28.0378 5.7627C27.8337 6.06706 27.5562 6.30518 27.2053 6.47705C27.6135 6.65251 27.9358 6.90853 28.1721 7.24512C28.412 7.58171 28.532 7.96305 28.532 8.38916C28.532 9.06592 28.3028 9.60482 27.8445 10.0059C27.3897 10.4069 26.7899 10.6074 26.0451 10.6074C25.2932 10.6074 24.6898 10.4069 24.2351 10.0059C23.7839 9.60124 23.5583 9.06234 23.5583 8.38916C23.5583 7.96663 23.6729 7.58529 23.9021 7.24512C24.1348 6.90495 24.4553 6.64714 24.8635 6.47168C24.5162 6.2998 24.2422 6.06169 24.0417 5.75732C23.8412 5.45296 23.7409 5.10742 23.7409 4.7207C23.7409 4.06185 23.9522 3.53906 24.3747 3.15234C24.7973 2.76562 25.3541 2.57227 26.0451 2.57227C26.7326 2.57227 27.2876 2.76562 27.7102 3.15234C28.1363 3.53906 28.3493 4.06185 28.3493 4.7207ZM27.5383 8.36768C27.5383 7.93083 27.3987 7.57454 27.1194 7.29883C26.8436 7.02311 26.482 6.88525 26.0344 6.88525C25.5868 6.88525 25.2269 7.02132 24.9548 7.29346C24.6863 7.56559 24.552 7.92367 24.552 8.36768C24.552 8.81169 24.6827 9.16081 24.9441 9.41504C25.209 9.66927 25.5761 9.79639 26.0451 9.79639C26.5106 9.79639 26.8759 9.66927 27.1408 9.41504C27.4058 9.15723 27.5383 8.80811 27.5383 8.36768ZM26.0451 3.38867C25.6548 3.38867 25.3379 3.51042 25.0945 3.75391C24.8545 3.99382 24.7346 4.32145 24.7346 4.73682C24.7346 5.13428 24.8528 5.45654 25.0891 5.70361C25.329 5.9471 25.6477 6.06885 26.0451 6.06885C26.4426 6.06885 26.7595 5.9471 26.9958 5.70361C27.2357 5.45654 27.3557 5.13428 27.3557 4.73682C27.3557 4.33936 27.2321 4.0153 26.9851 3.76465C26.738 3.514 26.4247 3.38867 26.0451 3.38867ZM29.4775 4.18359C29.4775 3.71452 29.6261 3.3278 29.9233 3.02344C30.2241 2.71908 30.609 2.56689 31.0781 2.56689C31.5543 2.56689 31.9392 2.72087 32.2329 3.02881C32.5301 3.33317 32.6787 3.72884 32.6787 4.21582V4.59717C32.6787 5.06982 32.5283 5.45654 32.2275 5.75732C31.9303 6.05452 31.5507 6.20312 31.0888 6.20312C30.6233 6.20312 30.2384 6.05452 29.934 5.75732C29.6297 5.45654 29.4775 5.05729 29.4775 4.55957V4.18359ZM30.2187 4.59717C30.2187 4.87646 30.2975 5.10742 30.455 5.29004C30.6126 5.46908 30.8238 5.55859 31.0888 5.55859C31.343 5.55859 31.5471 5.47087 31.7011 5.29541C31.8587 5.11995 31.9374 4.88005 31.9374 4.57568V4.18359C31.9374 3.9043 31.8605 3.67334 31.7065 3.49072C31.5525 3.30811 31.343 3.2168 31.0781 3.2168C30.8131 3.2168 30.6036 3.30811 30.4496 3.49072C30.2957 3.67334 30.2187 3.91146 30.2187 4.20508V4.59717ZM33.2856 8.58252C33.2856 8.11344 33.4342 7.72852 33.7314 7.42773C34.0322 7.12337 34.4171 6.97119 34.8862 6.97119C35.3552 6.97119 35.7402 7.12158 36.041 7.42236C36.3417 7.72314 36.4921 8.1224 36.4921 8.62012V9.00146C36.4921 9.47054 36.3417 9.85726 36.041 10.1616C35.7438 10.4624 35.3624 10.6128 34.8969 10.6128C34.4314 10.6128 34.0465 10.4642 33.7421 10.167C33.4378 9.86621 33.2856 9.46696 33.2856 8.96924V8.58252ZM34.0268 9.00146C34.0268 9.28434 34.1056 9.51709 34.2631 9.69971C34.4207 9.87874 34.6319 9.96826 34.8969 9.96826C35.1547 9.96826 35.3606 9.88053 35.5146 9.70508C35.6686 9.52604 35.7455 9.28434 35.7455 8.97998V8.58252C35.7455 8.29964 35.6668 8.06868 35.5092 7.88965C35.3552 7.71061 35.1476 7.62109 34.8862 7.62109C34.6319 7.62109 34.4243 7.71061 34.2631 7.88965C34.1056 8.0651 34.0268 8.30322 34.0268 8.604V9.00146ZM31.3144 9.90918L30.7504 9.55469L34.5693 3.44238L35.1332 3.79688L31.3144 9.90918Z" fill="#023E8A"/>
</svg>
